<?xml version="1.0" encoding="UTF-8"?>
<svg id="Livello_1" data-name="Livello 1" xmlns="http://www.w3.org/2000/svg" viewBox="0 0 435 442">
  <defs>
    <style>
      .cls-1 {
        stroke-linecap: round;
        stroke-width: 2px;
      }

      .cls-1, .cls-2 {
        fill: none;
      }

      .cls-1, .cls-2, .cls-3, .cls-4 {
        stroke: #f6f6f6;
        stroke-miterlimit: 10;
      }

      .cls-2 {
        stroke-width: 4px;
      }

      .cls-3 {
        stroke-width: 3px;
      }

      .cls-3, .cls-4, .cls-5 {
        fill: #f6f6f6;
      }

      .cls-4 {
        font-family: Vintages, Vintages;
        font-size: 48px;
      }

      .cls-5, .cls-6 {
        stroke-width: 0px;
      }

      .cls-6 {
        fill: #404040;
      }
    </style>
  </defs>
  <path class="cls-5" d="M209.9,361.55c-1.32-30.47-.79-61.34-.29-91.85.89-49.93,2.15-103.32,4.79-153.09,1.12,20.41,1.88,40.82,2.59,61.24,1.24,38.93,2.19,83.62,2.66,122.47.18,20.42.14,40.83-.75,61.24,0,0-9,0-9,0h0Z"/>
  <g>
    <polyline class="cls-6" points="213.57 274.59 256.66 217.12 299.13 161.05"/>
    <path class="cls-5" d="M209.97,271.89c24.78-30.58,53.29-66.25,78.07-96.94,0,0,11.09-13.9,11.09-13.9,0,0-10.37,14.44-10.37,14.44-14.83,20.76-36.7,51.55-51.28,72.61-6.8,9.71-13.56,19.44-20.3,29.2,0,0-7.2-5.4-7.2-5.4h0Z"/>
  </g>
  <polygon class="cls-5" points="213.16 184.59 170.35 146.98 215.65 181.54 213.16 184.59 213.16 184.59"/>
  <g>
    <polyline class="cls-6" points="213.57 265.38 168.47 220.28 139.07 189.6"/>
    <path class="cls-5" d="M210.39,268.57c-20.85-22.57-51.48-56-71.33-78.97,0,0,19.18,18.41,19.18,18.41,12.63,12.41,45.07,41.76,58.51,54.19,0,0-6.36,6.36-6.36,6.36h0Z"/>
  </g>
  <polygon class="cls-5" points="174.31 226.85 176.41 196.24 178.52 226.85 174.31 226.85 174.31 226.85"/>
  <polygon class="cls-5" points="258.93 211.45 260.94 172.06 262.97 211.45 258.93 211.45 258.93 211.45"/>
  <circle class="cls-3" cx="170.35" cy="146.98" r="5.75"/>
  <circle class="cls-3" cx="299.13" cy="161.05" r="4.6"/>
  <circle class="cls-3" cx="260.95" cy="172.54" r="4.6"/>
  <circle class="cls-3" cx="176.41" cy="193.33" r="4.74"/>
  <circle class="cls-3" cx="139.07" cy="189.6" r="4.74"/>
  <g>
    <g>
      <path class="cls-1" d="M152.13,198.53c.75-1.04,1.39-2.19,1.9-3.43,3.56-8.63-.55-18.52-9.18-22.08-8.63-3.56-18.52.55-22.08,9.18-.87,2.12-1.28,4.31-1.28,6.46"/>
      <path class="cls-1" d="M157.02,203.11c1.27-1.63,2.35-3.46,3.18-5.47,4.96-12.03-.77-25.81-12.8-30.77s-25.81.77-30.77,12.8c-1.22,2.95-1.79,6-1.79,9"/>
      <path class="cls-1" d="M161.92,207.7c1.8-2.22,3.31-4.74,4.46-7.51,6.37-15.43-.98-33.1-16.42-39.47-15.43-6.37-33.1.98-39.47,16.42-1.56,3.78-2.29,7.69-2.29,11.53"/>
    </g>
    <g>
      <path class="cls-1" d="M181.18,205.86c5.25-1.96,8.99-7.03,8.99-12.97,0-7.64-6.2-13.84-13.84-13.84-1.45,0-2.84.22-4.15.63"/>
      <path class="cls-1" d="M181.65,211.41c8.07-2.28,13.99-9.71,13.99-18.52,0-10.65-8.64-19.29-19.29-19.29-2.23,0-4.38.38-6.37,1.08"/>
      <path class="cls-1" d="M182.11,216.96c10.89-2.59,18.98-12.38,18.98-24.07,0-13.66-11.08-24.74-24.74-24.74-3.02,0-5.91.54-8.59,1.53"/>
    </g>
  </g>
  <g>
    <g>
      <path class="cls-1" d="M286.93,170.36c-.72-.89-1.35-1.87-1.86-2.94-3.55-7.44-.13-16.25,7.65-19.67s16.97-.18,20.52,7.26c.87,1.82,1.32,3.73,1.39,5.62"/>
      <path class="cls-1" d="M282.61,174.55c-1.22-1.38-2.27-2.95-3.1-4.68-4.95-10.37-.18-22.65,10.66-27.42s23.65-.25,28.6,10.12c1.21,2.54,1.84,5.19,1.94,7.82"/>
      <path class="cls-1" d="M278.29,178.75c-1.72-1.88-3.19-4.03-4.33-6.42-6.35-13.3-.23-29.05,13.68-35.17,13.91-6.13,30.33-.32,36.68,12.98,1.55,3.25,2.36,6.65,2.49,10.02"/>
    </g>
    <g>
      <path class="cls-1" d="M255.77,186.4c-5.76-1.81-10.01-6.9-10.25-13.04-.31-7.91,6.14-14.58,14.4-14.9,1.82-.07,3.57.17,5.21.68"/>
      <path class="cls-1" d="M255.49,192.17c-8.82-2.02-15.51-9.46-15.87-18.58-.43-11.03,8.56-20.33,20.07-20.78,2.65-.1,5.21.27,7.58,1.05"/>
      <path class="cls-1" d="M255.2,197.93c-11.87-2.23-21.02-12.02-21.49-24.11-.55-14.14,10.98-26.07,25.75-26.65,3.49-.14,6.84.37,9.94,1.42"/>
    </g>
  </g>
  <g>
    <path class="cls-1" d="M239.28,146.19c-.51-1.07-.9-2.22-1.16-3.42-1.76-8.37,3.85-16.42,12.54-17.98,8.69-1.55,17.16,3.98,18.92,12.35.43,2.05.42,4.09.03,6.01"/>
    <path class="cls-1" d="M233.89,149.36c-.78-1.5-1.4-3.1-1.81-4.79-.09-.36-.17-.72-.24-1.09-2.21-11.53,5.57-22.52,17.55-24.66,10.47-1.87,20.71,3.74,24.63,12.85.95,2.22,1.51,4.55,1.66,6.92"/>
    <path class="cls-1" d="M228.5,152.53c-1.28-2.32-2.23-4.85-2.8-7.54-3.15-14.97,6.88-29.36,22.41-32.14,15.22-2.72,30.07,6.71,33.63,21.18"/>
  </g>
  <polygon class="cls-5" points="213.2 168.48 249.53 142.86 215.61 171.6 213.2 168.48 213.2 168.48"/>
  <circle class="cls-3" cx="253.43" cy="139.49" r="4.13"/>
  <circle class="cls-3" cx="214.4" cy="111.15" r="4.13"/>
  <g>
    <path class="cls-1" d="M194.87,114.42c-.4-9.74,7.04-18.12,17.25-19.04,10.72-.97,20.42,6.64,21.68,17"/>
    <path class="cls-1" d="M187.32,111.51c.88-12.24,10.73-22.34,23.89-23.53,14.17-1.28,27.07,8.22,29.81,21.53"/>
    <path class="cls-1" d="M179.77,108.61c2.17-14.73,14.42-26.56,30.52-28.01,17.63-1.59,33.72,9.8,37.94,26.05"/>
  </g>
  <g>
    <path class="cls-1" d="M154.52,156.73c-1.77-2.99-2.75-6.51-2.65-10.24.29-10.54,9.07-18.84,19.6-18.55,10.54.29,18.84,9.07,18.55,19.6-.09,3.24-.98,6.27-2.48,8.91"/>
    <path class="cls-1" d="M146.07,155.86c-1.23-2.92-1.88-6.17-1.78-9.58.41-14.72,12.67-26.33,27.39-25.92,14.72.41,26.33,12.67,25.92,27.39-.13,4.89-1.58,9.43-3.99,13.3"/>
    <path class="cls-1" d="M137.63,154.98c-.68-2.85-1-5.84-.92-8.92.52-18.91,16.27-33.81,35.18-33.29,18.91.52,33.81,16.27,33.29,35.18-.18,6.53-2.18,12.58-5.49,17.69"/>
  </g>
  <ellipse class="cls-2" cx="217.5" cy="221" rx="215.5" ry="219"/>
  <text class="cls-4" transform="translate(350.84 105) rotate(52.63)"><tspan x="0" y="0">E</tspan></text>
  <text class="cls-4" transform="translate(359.92 117.09) rotate(56.01)"><tspan x="0" y="0">.</tspan></text>
  <text class="cls-4" transform="translate(363.42 121.95) rotate(59.64)"><tspan x="0" y="0">T</tspan></text>
  <text class="cls-4" transform="translate(371.75 136.48) rotate(63.27)"><tspan x="0" y="0">.</tspan></text>
  <text class="cls-4" transform="translate(374.55 141.89) rotate(65.94)"><tspan x="0" y="0"> </tspan></text>
  <text class="cls-4" transform="translate(378.92 151.41) rotate(70.09)"><tspan x="0" y="0">C</tspan></text>
  <text class="cls-4" transform="translate(384.23 165.91) rotate(75.13)"><tspan x="0" y="0">o</tspan></text>
  <text class="cls-4" transform="translate(388.48 181.51) rotate(80.72)"><tspan x="0" y="0">m</tspan></text>
  <text class="cls-4" transform="translate(391.53 200.46) rotate(86.16)"><tspan x="0" y="0">p</tspan></text>
  <text class="cls-4" transform="translate(392.59 216.05) rotate(90.91)"><tspan x="0" y="0">l</tspan></text>
  <text class="cls-4" transform="translate(392.47 229.38) rotate(95.02)"><tspan x="0" y="0">e</tspan></text>
  <text class="cls-4" transform="translate(391.22 244.23) rotate(99.91)"><tspan x="0" y="0">x</tspan></text>
  <text class="cls-4" transform="translate(388.31 260.38) rotate(104.16)"><tspan x="0" y="0"> </tspan></text>
  <text class="cls-4" transform="translate(385.75 270.61) rotate(107.52)"><tspan x="0" y="0"> </tspan></text>
  <text class="cls-4" transform="translate(382.69 280.63) rotate(111.58)"><tspan x="0" y="0">E</tspan></text>
  <text class="cls-4" transform="translate(377.02 294.64) rotate(114.94)"><tspan x="0" y="0">.</tspan></text>
  <text class="cls-4" transform="translate(374.67 300.13) rotate(118.57)"><tspan x="0" y="0">T</tspan></text>
  <text class="cls-4" transform="translate(366.52 314.78) rotate(122.19)"><tspan x="0" y="0">.</tspan></text>
  <text class="cls-4" transform="translate(363.32 319.98) rotate(124.87)"><tspan x="0" y="0"> </tspan></text>
  <text class="cls-4" transform="translate(357.44 328.62) rotate(129.04)"><tspan x="0" y="0">C</tspan></text>
  <text class="cls-4" transform="translate(347.74 340.66) rotate(134.12)"><tspan x="0" y="0">o</tspan></text>
  <text class="cls-4" transform="translate(336.59 352.33) rotate(139.81)"><tspan x="0" y="0">m</tspan></text>
  <text class="cls-4" transform="translate(321.91 364.66) rotate(145.46)"><tspan x="0" y="0">p</tspan></text>
  <text class="cls-4" transform="translate(309.01 373.51) rotate(150.19)"><tspan x="0" y="0">l</tspan></text>
  <text class="cls-4" transform="translate(297.57 380.14) rotate(154.85)"><tspan x="0" y="0">e</tspan></text>
  <text class="cls-4" transform="translate(284.14 386.52) rotate(160.04)"><tspan x="0" y="0">x</tspan></text>
  <text class="cls-4" transform="translate(268.74 392.01) rotate(164.52)"><tspan x="0" y="0"> </tspan></text>
  <text class="cls-4" transform="translate(258.58 394.84) rotate(168.05)"><tspan x="0" y="0"> </tspan></text>
  <text class="cls-4" transform="translate(248.41 397.11) rotate(172.3)"><tspan x="0" y="0">E</tspan></text>
  <text class="cls-4" transform="translate(233.41 399.01) rotate(175.82)"><tspan x="0" y="0">.</tspan></text>
  <text class="cls-4" transform="translate(227.52 399.56) rotate(179.05)"><tspan x="0" y="0">T</tspan></text>
  <text class="cls-4" transform="translate(210.75 399.61) rotate(-176.71)"><tspan x="0" y="0">.</tspan></text>
  <text class="cls-4" transform="translate(204.67 399.32) rotate(-173.93)"><tspan x="0" y="0"> </tspan></text>
  <text class="cls-4" transform="translate(194.28 398.34) rotate(-169.59)"><tspan x="0" y="0">C</tspan></text>
  <text class="cls-4" transform="translate(179.08 395.6) rotate(-164.29)"><tspan x="0" y="0">o</tspan></text>
  <text class="cls-4" transform="translate(163.55 391.36) rotate(-158.4)"><tspan x="0" y="0">m</tspan></text>
  <text class="cls-4" transform="translate(145.76 384.26) rotate(-152.64)"><tspan x="0" y="0">p</tspan></text>
  <text class="cls-4" transform="translate(131.88 377.05) rotate(-147.89)"><tspan x="0" y="0">l</tspan></text>
  <text class="cls-4" transform="translate(120.64 370.06) rotate(-143.28)"><tspan x="0" y="0">e</tspan></text>
  <text class="cls-4" transform="translate(108.67 361.22) rotate(-138.22)"><tspan x="0" y="0">x</tspan></text>
  <text class="cls-4" transform="translate(96.51 350.22) rotate(-133.9)"><tspan x="0" y="0"> </tspan></text>
  <text class="cls-4" transform="translate(89.18 342.63) rotate(-130.51)"><tspan x="0" y="0"> </tspan></text>
  <text class="cls-4" transform="translate(82.3 334.73) rotate(-126.43)"><tspan x="0" y="0">E</tspan></text>
  <text class="cls-4" transform="translate(73.43 322.51) rotate(-123.06)"><tspan x="0" y="0">.</tspan></text>
  <text class="cls-4" transform="translate(70.01 317.61) rotate(-119.43)"><tspan x="0" y="0">T</tspan></text>
  <text class="cls-4" transform="translate(61.92 302.95) rotate(-115.81)"><tspan x="0" y="0">.</tspan></text>
  <text class="cls-4" transform="translate(59.21 297.48) rotate(-113.14)"><tspan x="0" y="0"> </tspan></text>
  <text class="cls-4" transform="translate(54.99 287.91) rotate(-108.99)"><tspan x="0" y="0">C</tspan></text>
  <text class="cls-4" transform="translate(49.91 273.28) rotate(-103.94)"><tspan x="0" y="0">o</tspan></text>
  <text class="cls-4" transform="translate(45.91 257.64) rotate(-98.37)"><tspan x="0" y="0">m</tspan></text>
  <text class="cls-4" transform="translate(43.17 238.63) rotate(-92.93)"><tspan x="0" y="0">p</tspan></text>
  <text class="cls-4" transform="translate(42.39 222.96) rotate(-88.47)"><tspan x="0" y="0">l</tspan></text>
  <text class="cls-4" transform="translate(42.69 209.71) rotate(-84.08)"><tspan x="0" y="0">e</tspan></text>
  <text class="cls-4" transform="translate(44.17 194.87) rotate(-79.16)"><tspan x="0" y="0">x</tspan></text>
  <text class="cls-4" transform="translate(47.33 178.8) rotate(-74.92)"><tspan x="0" y="0"> </tspan></text>
  <text class="cls-4" transform="translate(50.07 168.6) rotate(-71.56)"><tspan x="0" y="0"> </tspan></text>
  <text class="cls-4" transform="translate(53.28 158.63) rotate(-67.5)"><tspan x="0" y="0">E</tspan></text>
  <text class="cls-4" transform="translate(59.18 144.7) rotate(-64.13)"><tspan x="0" y="0">.</tspan></text>
  <text class="cls-4" transform="translate(61.62 139.25) rotate(-60.5)"><tspan x="0" y="0">T</tspan></text>
  <text class="cls-4" transform="translate(70 124.75) rotate(-56.88)"><tspan x="0" y="0">.</tspan></text>
  <text class="cls-4" transform="translate(73.28 119.61) rotate(-54.2)"><tspan x="0" y="0"> </tspan></text>
  <text class="cls-4" transform="translate(79.3 111.06) rotate(-50.04)"><tspan x="0" y="0">C</tspan></text>
  <text class="cls-4" transform="translate(89.19 99.18) rotate(-44.95)"><tspan x="0" y="0">o</tspan></text>
  <text class="cls-4" transform="translate(100.55 87.68) rotate(-39.24)"><tspan x="0" y="0">m</tspan></text>
  <text class="cls-4" transform="translate(115.42 75.6) rotate(-33.59)"><tspan x="0" y="0">p</tspan></text>
  <text class="cls-4" transform="translate(128.48 66.95) rotate(-28.84)"><tspan x="0" y="0">l</tspan></text>
  <text class="cls-4" transform="translate(140.01 60.53) rotate(-24.18)"><tspan x="0" y="0">e</tspan></text>
  <text class="cls-4" transform="translate(153.56 54.37) rotate(-18.99)"><tspan x="0" y="0">x</tspan></text>
  <text class="cls-4" transform="translate(169.05 49.14) rotate(-14.51)"><tspan x="0" y="0"> </tspan></text>
  <text class="cls-4" transform="translate(179.26 46.48) rotate(-10.97)"><tspan x="0" y="0"> </tspan></text>
  <text class="cls-4" transform="translate(189.49 44.39) rotate(-6.72)"><tspan x="0" y="0">E</tspan></text>
  <text class="cls-4" transform="translate(204.49 42.75) rotate(-3.22)"><tspan x="0" y="0">.</tspan></text>
  <text class="cls-4" transform="translate(210.45 42.16) rotate(.95)"><tspan x="0" y="0">T</tspan></text>
  <text class="cls-4" transform="translate(227.14 42.53) rotate(4.25)"><tspan x="0" y="0">.</tspan></text>
  <text class="cls-4" transform="translate(233.23 42.92) rotate(7.03)"><tspan x="0" y="0"> </tspan></text>
  <text class="cls-4" transform="translate(243.6 44.08) rotate(11.38)"><tspan x="0" y="0">C</tspan></text>
  <text class="cls-4" transform="translate(258.75 47.07) rotate(16.68)"><tspan x="0" y="0">o</tspan></text>
  <text class="cls-4" transform="translate(274.21 51.58) rotate(22.57)"><tspan x="0" y="0">m</tspan></text>
  <text class="cls-4" transform="translate(291.89 58.99) rotate(28.33)"><tspan x="0" y="0">p</tspan></text>
  <text class="cls-4" transform="translate(305.64 66.43) rotate(33.07)"><tspan x="0" y="0">l</tspan></text>
  <text class="cls-4" transform="translate(316.76 73.6) rotate(37.67)"><tspan x="0" y="0">e</tspan></text>
  <text class="cls-4" transform="translate(328.58 82.64) rotate(42.72)"><tspan x="0" y="0">x</tspan></text>
  <text class="cls-4" transform="translate(340.54 93.81) rotate(47.03)"><tspan x="0" y="0"> </tspan></text>
  <text class="cls-4" transform="translate(347.75 101.53) rotate(50.42)"><tspan x="0" y="0"> </tspan></text>
  <text class="cls-4" transform="translate(354.51 109.68) rotate(53.81)"><tspan x="0" y="0"> </tspan></text>
  <ellipse class="cls-2" cx="217.5" cy="221" rx="167.45" ry="170.17"/>
</svg>