<?xml version="1.0" encoding="UTF-8"?>
<svg id="Livello_1" data-name="Livello 1" xmlns="http://www.w3.org/2000/svg" viewBox="0 0 220.62 282.09">
  <defs>
    <style>
      .cls-1 {
        fill: none;
        stroke-linecap: round;
        stroke-width: 2px;
      }

      .cls-1, .cls-2 {
        stroke: #f6f6f6;
        stroke-miterlimit: 10;
      }

      .cls-2 {
        stroke-width: 3px;
      }

      .cls-2, .cls-3 {
        fill: #f6f6f6;
      }

      .cls-3, .cls-4 {
        stroke-width: 0px;
      }

      .cls-4 {
        fill: #404040;
      }
    </style>
  </defs>
  <path class="cls-3" d="M102.71,282.09c-1.32-30.47-.79-61.34-.29-91.85.89-49.93,2.15-103.32,4.79-153.09,1.12,20.41,1.88,40.82,2.59,61.24,1.24,38.93,2.19,83.62,2.66,122.47.18,20.42.14,40.83-.75,61.24,0,0-9,0-9,0h0Z"/>
  <g>
    <polyline class="cls-4" points="106.38 195.14 149.47 137.66 191.94 81.6"/>
    <path class="cls-3" d="M102.78,192.44c24.78-30.58,53.29-66.25,78.07-96.94,0,0,11.09-13.9,11.09-13.9,0,0-10.37,14.44-10.37,14.44-14.83,20.76-36.7,51.55-51.28,72.61-6.8,9.71-13.56,19.44-20.3,29.2,0,0-7.2-5.4-7.2-5.4h0Z"/>
  </g>
  <polygon class="cls-3" points="105.96 105.13 63.16 67.52 108.46 102.08 105.96 105.13 105.96 105.13"/>
  <g>
    <polyline class="cls-4" points="106.38 185.93 61.27 140.82 31.87 110.14"/>
    <path class="cls-3" d="M103.2,189.11c-20.85-22.57-51.48-56-71.33-78.97,0,0,19.18,18.41,19.18,18.41,12.63,12.41,45.07,41.76,58.51,54.19,0,0-6.36,6.36-6.36,6.36h0Z"/>
  </g>
  <polygon class="cls-3" points="67.12 147.4 69.22 116.79 71.33 147.4 67.12 147.4 67.12 147.4"/>
  <polygon class="cls-3" points="151.74 132 153.75 92.6 155.78 132 151.74 132 151.74 132"/>
  <circle class="cls-2" cx="63.16" cy="67.52" r="5.75"/>
  <circle class="cls-2" cx="191.94" cy="81.6" r="4.6"/>
  <circle class="cls-2" cx="153.76" cy="93.09" r="4.6"/>
  <circle class="cls-2" cx="69.22" cy="113.87" r="4.74"/>
  <circle class="cls-2" cx="31.87" cy="110.14" r="4.74"/>
  <g>
    <g>
      <path class="cls-1" d="M44.94,119.07c.75-1.04,1.39-2.19,1.9-3.43,3.56-8.63-.55-18.52-9.18-22.08-8.63-3.56-18.52.55-22.08,9.18-.87,2.12-1.28,4.31-1.28,6.46"/>
      <path class="cls-1" d="M49.83,123.66c1.27-1.63,2.35-3.46,3.18-5.47,4.96-12.03-.77-25.81-12.8-30.77s-25.81.77-30.77,12.8c-1.22,2.95-1.79,6-1.79,9"/>
      <path class="cls-1" d="M54.72,128.24c1.8-2.22,3.31-4.74,4.46-7.51,6.37-15.43-.98-33.1-16.42-39.47-15.43-6.37-33.1.98-39.47,16.42-1.56,3.78-2.29,7.69-2.29,11.53"/>
    </g>
    <g>
      <path class="cls-1" d="M73.99,126.4c5.25-1.96,8.99-7.03,8.99-12.97,0-7.64-6.2-13.84-13.84-13.84-1.45,0-2.84.22-4.15.63"/>
      <path class="cls-1" d="M74.46,131.95c8.07-2.28,13.99-9.71,13.99-18.52,0-10.65-8.64-19.29-19.29-19.29-2.23,0-4.38.38-6.37,1.08"/>
      <path class="cls-1" d="M74.92,137.5c10.89-2.59,18.98-12.38,18.98-24.07,0-13.66-11.08-24.74-24.74-24.74-3.02,0-5.91.54-8.59,1.53"/>
    </g>
  </g>
  <g>
    <g>
      <path class="cls-1" d="M179.74,90.91c-.72-.89-1.35-1.87-1.86-2.94-3.55-7.44-.13-16.25,7.65-19.67s16.97-.18,20.52,7.26c.87,1.82,1.32,3.73,1.39,5.62"/>
      <path class="cls-1" d="M175.42,95.1c-1.22-1.38-2.27-2.95-3.1-4.68-4.95-10.37-.18-22.65,10.66-27.42s23.65-.25,28.6,10.12c1.21,2.54,1.84,5.19,1.94,7.82"/>
      <path class="cls-1" d="M171.1,99.29c-1.72-1.88-3.19-4.03-4.33-6.42-6.35-13.3-.23-29.05,13.68-35.17,13.91-6.13,30.33-.32,36.68,12.98,1.55,3.25,2.36,6.65,2.49,10.02"/>
    </g>
    <g>
      <path class="cls-1" d="M148.58,106.95c-5.76-1.81-10.01-6.9-10.25-13.04-.31-7.91,6.14-14.58,14.4-14.9,1.82-.07,3.57.17,5.21.68"/>
      <path class="cls-1" d="M148.29,112.71c-8.82-2.02-15.51-9.46-15.87-18.58-.43-11.03,8.56-20.33,20.07-20.78,2.65-.1,5.21.27,7.58,1.05"/>
      <path class="cls-1" d="M148.01,118.48c-11.87-2.23-21.02-12.02-21.49-24.11-.55-14.14,10.98-26.07,25.75-26.65,3.49-.14,6.84.37,9.94,1.42"/>
    </g>
  </g>
  <g>
    <path class="cls-1" d="M132.09,66.73c-.51-1.07-.9-2.22-1.16-3.42-1.76-8.37,3.85-16.42,12.54-17.98,8.69-1.55,17.16,3.98,18.92,12.35.43,2.05.42,4.09.03,6.01"/>
    <path class="cls-1" d="M126.7,69.91c-.78-1.5-1.4-3.1-1.81-4.79-.09-.36-.17-.72-.24-1.09-2.21-11.53,5.57-22.52,17.55-24.66,10.47-1.87,20.71,3.74,24.63,12.85.95,2.22,1.51,4.55,1.66,6.92"/>
    <path class="cls-1" d="M121.31,73.08c-1.28-2.32-2.23-4.85-2.8-7.54-3.15-14.97,6.88-29.36,22.41-32.14,15.22-2.72,30.07,6.71,33.63,21.18"/>
  </g>
  <polygon class="cls-3" points="106.01 89.02 142.34 63.41 108.42 92.14 106.01 89.02 106.01 89.02"/>
  <circle class="cls-2" cx="146.24" cy="60.04" r="4.13"/>
  <circle class="cls-2" cx="107.21" cy="31.7" r="4.13"/>
  <g>
    <path class="cls-1" d="M87.68,34.96c-.4-9.74,7.04-18.12,17.25-19.04,10.72-.97,20.42,6.64,21.68,17"/>
    <path class="cls-1" d="M80.13,32.06c.88-12.24,10.73-22.34,23.89-23.53,14.17-1.28,27.07,8.22,29.81,21.53"/>
    <path class="cls-1" d="M72.58,29.16c2.17-14.73,14.42-26.56,30.52-28.01,17.63-1.59,33.72,9.8,37.94,26.05"/>
  </g>
  <g>
    <path class="cls-1" d="M47.33,77.27c-1.77-2.99-2.75-6.51-2.65-10.24.29-10.54,9.07-18.84,19.6-18.55,10.54.29,18.84,9.07,18.55,19.6-.09,3.24-.98,6.27-2.48,8.91"/>
    <path class="cls-1" d="M38.88,76.4c-1.23-2.92-1.88-6.17-1.78-9.58.41-14.72,12.67-26.33,27.39-25.92,14.72.41,26.33,12.67,25.92,27.39-.13,4.89-1.58,9.43-3.99,13.3"/>
    <path class="cls-1" d="M30.44,75.53c-.68-2.85-1-5.84-.92-8.92.52-18.91,16.27-33.81,35.18-33.29,18.91.52,33.81,16.27,33.29,35.18-.18,6.53-2.18,12.58-5.49,17.69"/>
  </g>
</svg>